<?xml version="1.0" encoding="UTF-8" standalone="no"?>
<svg width="18px" height="18px" viewBox="0 0 18 18" version="1.1" xmlns="http://www.w3.org/2000/svg" xmlns:xlink="http://www.w3.org/1999/xlink">
    <!-- Generator: Sketch 42 (36781) - http://www.bohemiancoding.com/sketch -->
    <title>Page 1</title>
    <desc>Created with Sketch.</desc>
    <defs></defs>
    <g id="Page-1" stroke="none" stroke-width="1" fill="none" fill-rule="evenodd">
        <g id="Webinar-Home" transform="translate(-184.000000, -453.000000)" fill="#FFFFFF">
            <path d="M197.65,467 C197.65,466.6136 197.9636,466.3 198.35,466.3 C198.7364,466.3 199.05,466.6136 199.05,467 C199.05,467.3864 198.7364,467.7 198.35,467.7 C197.9636,467.7 197.65,467.3864 197.65,467 L197.65,467 Z M197.65,463.85 C197.65,463.4636 197.9636,463.15 198.35,463.15 C198.7364,463.15 199.05,463.4636 199.05,463.85 C199.05,464.2364 198.7364,464.55 198.35,464.55 C197.9636,464.55 197.65,464.2364 197.65,463.85 L197.65,463.85 Z M197.65,460.7 C197.65,460.3136 197.9636,460 198.35,460 C198.7364,460 199.05,460.3136 199.05,460.7 C199.05,461.0864 198.7364,461.4 198.35,461.4 C197.9636,461.4 197.65,461.0864 197.65,460.7 L197.65,460.7 Z M196.25,467 C196.25,467.3864 195.9364,467.7 195.55,467.7 C195.1636,467.7 194.85,467.3864 194.85,467 C194.85,466.6136 195.1636,466.3 195.55,466.3 C195.9364,466.3 196.25,466.6136 196.25,467 L196.25,467 Z M194.15,463.85 C194.15,463.07685 194.77685,462.45 195.55,462.45 C196.32315,462.45 196.95,463.07685 196.95,463.85 C196.95,464.62315 196.32315,465.25 195.55,465.25 C194.77685,465.25 194.15,464.62315 194.15,463.85 L194.15,463.85 Z M194.85,460.7 C194.85,460.3136 195.1636,460 195.55,460 C195.9364,460 196.25,460.3136 196.25,460.7 C196.25,461.0864 195.9364,461.4 195.55,461.4 C195.1636,461.4 194.85,461.0864 194.85,460.7 L194.85,460.7 Z M192.05,467 C192.05,466.6136 192.3636,466.3 192.75,466.3 C193.1364,466.3 193.45,466.6136 193.45,467 C193.45,467.3864 193.1364,467.7 192.75,467.7 C192.3636,467.7 192.05,467.3864 192.05,467 L192.05,467 Z M192.05,463.85 C192.05,463.4636 192.3636,463.15 192.75,463.15 C193.1364,463.15 193.45,463.4636 193.45,463.85 C193.45,464.2364 193.1364,464.55 192.75,464.55 C192.3636,464.55 192.05,464.2364 192.05,463.85 L192.05,463.85 Z M192.05,460.7 C192.05,460.3136 192.3636,460 192.75,460 C193.1364,460 193.45,460.3136 193.45,460.7 C193.45,461.0864 193.1364,461.4 192.75,461.4 C192.3636,461.4 192.05,461.0864 192.05,460.7 L192.05,460.7 Z M189.25,467 C189.25,466.6136 189.5636,466.3 189.95,466.3 C190.3364,466.3 190.65,466.6136 190.65,467 C190.65,467.3864 190.3364,467.7 189.95,467.7 C189.5636,467.7 189.25,467.3864 189.25,467 L189.25,467 Z M189.25,463.85 C189.25,463.4636 189.5636,463.15 189.95,463.15 C190.3364,463.15 190.65,463.4636 190.65,463.85 C190.65,464.2364 190.3364,464.55 189.95,464.55 C189.5636,464.55 189.25,464.2364 189.25,463.85 L189.25,463.85 Z M189.25,460.7 C189.25,460.3136 189.5636,460 189.95,460 C190.3364,460 190.65,460.3136 190.65,460.7 C190.65,461.0864 190.3364,461.4 189.95,461.4 C189.5636,461.4 189.25,461.0864 189.25,460.7 L189.25,460.7 Z M186.45,467 C186.45,466.6136 186.7636,466.3 187.15,466.3 C187.5364,466.3 187.85,466.6136 187.85,467 C187.85,467.3864 187.5364,467.7 187.15,467.7 C186.7636,467.7 186.45,467.3864 186.45,467 L186.45,467 Z M186.45,463.85 C186.45,463.4636 186.7636,463.15 187.15,463.15 C187.5364,463.15 187.85,463.4636 187.85,463.85 C187.85,464.2364 187.5364,464.55 187.15,464.55 C186.7636,464.55 186.45,464.2364 186.45,463.85 L186.45,463.85 Z M186.45,460.7 C186.45,460.3136 186.7636,460 187.15,460 C187.5364,460 187.85,460.3136 187.85,460.7 C187.85,461.0864 187.5364,461.4 187.15,461.4 C186.7636,461.4 186.45,461.0864 186.45,460.7 L186.45,460.7 Z M200.45,466.65 C200.45,468.19385 199.19385,469.45 197.65,469.45 L187.85,469.45 C186.30615,469.45 185.05,468.19385 185.05,466.65 L185.05,458.6 L200.45,458.6 L200.45,466.65 Z M201.48005,456.45625 C201.44085,456.0681 201.34355,455.69675 201.19725,455.3513 C201.1486,455.23615 201.0947,455.1238 201.0352,455.01495 C200.44265,453.924 199.33805,453.1512 198.04375,453.01995 C197.91425,453.00665 197.783,453 197.65,453 L187.85,453 C187.717,453 187.58575,453.00665 187.45625,453.01995 C186.16195,453.1512 185.05735,453.924 184.4648,455.01495 C184.4053,455.1238 184.3514,455.23615 184.30275,455.3513 C184.15645,455.69675 184.05915,456.0681 184.01995,456.45625 C184.00665,456.58575 184,456.717 184,456.85 L184,458.6 L184,466.65 C184,468.77625 185.72375,470.5 187.85,470.5 L197.65,470.5 C199.77625,470.5 201.5,468.77625 201.5,466.65 L201.5,458.6 L201.5,456.85 C201.5,456.717 201.49335,456.58575 201.48005,456.45625 L201.48005,456.45625 Z" id="Page-1"></path>
        </g>
    </g>
</svg>